<svg xmlns="http://www.w3.org/2000/svg" width="1200" height="800" viewBox="0 0 1200 800">
  <defs>
    <linearGradient id="bg" x1="0" y1="0" x2="1" y2="1">
      <stop offset="0" stop-color="#111111"/>
      <stop offset="1" stop-color="#1b1b1b"/>
    </linearGradient>
  </defs>
  <rect width="1200" height="800" fill="url(#bg)"/>
  <rect x="40" y="40" width="1120" height="720" rx="36" fill="none" stroke="#c9a227" stroke-width="6" opacity="0.5"/>
  <g fill="#c9a227" opacity="0.9">
    <path d="M600 230c-88 0-160 72-160 160s72 160 160 160 160-72 160-160-72-160-160-160zm0 46c62 0 114 52 114 114s-52 114-114 114-114-52-114-114 52-114 114-114z"/>
    <path d="M410 575h380c12 0 22 10 22 22s-10 22-22 22H410c-12 0-22-10-22-22s10-22 22-22z"/>
  </g>
  <text x="600" y="680" text-anchor="middle" font-family="system-ui, -apple-system, Segoe UI, Roboto, Arial" font-size="40" fill="#e6e6e6" opacity="0.9">
    Lotus Menu Image
  </text>
</svg>
